<?xml version="1.0" standalone="no"?>
<!DOCTYPE svg PUBLIC "-//W3C//DTD SVG 20010904//EN"
 "http://www.w3.org/TR/2001/REC-SVG-20010904/DTD/svg10.dtd">
<svg version="1.0" xmlns="http://www.w3.org/2000/svg"
 width="2128.000000pt" height="2128.000000pt" viewBox="0 0 2128.000000 2128.000000"
 preserveAspectRatio="xMidYMid meet">
<metadata>
Created by potrace 1.14, written by Peter Selinger 2001-2017
</metadata>
<g transform="translate(0.000000,2128.000000) scale(0.100000,-0.100000)"
fill="#000000" stroke="none">
<path d="M2657 13554 c-1 -1 -29 -5 -62 -8 -81 -9 -146 -17 -170 -22 -11 -2
-47 -9 -80 -15 -147 -26 -348 -84 -510 -146 -110 -43 -347 -159 -434 -213 -34
-22 -67 -40 -71 -40 -5 0 -10 -3 -12 -7 -1 -5 -23 -21 -48 -37 -344 -221 -709
-620 -911 -996 -13 -25 -28 -48 -32 -51 -5 -3 -8 -8 -7 -10 1 -2 -18 -47 -43
-99 -113 -240 -213 -561 -242 -780 -3 -19 -7 -51 -10 -70 -2 -19 -8 -62 -12
-95 -10 -74 -9 -511 0 -580 4 -27 10 -70 13 -95 2 -25 9 -65 15 -90 5 -25 11
-61 14 -80 4 -37 51 -235 62 -260 3 -8 7 -19 8 -25 2 -5 17 -52 34 -103 66
-193 168 -409 275 -577 31 -49 62 -99 69 -110 7 -11 14 -22 17 -25 3 -3 17
-21 30 -40 13 -19 30 -42 37 -50 7 -8 34 -42 60 -75 98 -124 262 -290 398
-403 142 -117 398 -287 503 -333 17 -7 32 -17 32 -21 0 -5 6 -8 14 -8 7 0 40
-13 72 -29 145 -71 376 -153 522 -186 152 -34 183 -40 276 -55 124 -20 198
-24 421 -24 215 -1 294 4 425 25 36 6 74 12 85 14 49 7 127 24 188 40 9 3 26
7 37 10 117 29 277 83 330 110 16 8 32 15 35 15 22 0 353 162 365 179 3 4 13
10 22 14 17 6 198 125 208 136 3 3 21 17 40 30 108 75 314 266 439 408 197
223 391 538 501 813 28 68 110 316 116 350 3 14 11 50 19 80 8 30 17 71 20 90
3 19 8 49 12 65 7 34 9 47 18 125 4 30 9 66 11 80 3 14 7 86 10 160 l6 135
-719 -1 c-395 -1 -720 -2 -723 -3 -3 0 -6 -36 -6 -79 -1 -42 -5 -93 -9 -112
-3 -19 -8 -48 -11 -65 -7 -51 -9 -60 -17 -72 -5 -7 -6 -13 -3 -13 3 0 1 -11
-4 -25 -5 -14 -12 -36 -14 -48 -9 -44 -100 -262 -116 -277 -3 -3 -11 -15 -17
-27 -43 -76 -36 -67 -114 -167 -194 -249 -467 -429 -766 -505 -77 -20 -89 -22
-188 -37 -108 -17 -348 -8 -464 16 -119 25 -342 103 -349 122 -2 4 -11 8 -21
8 -9 0 -22 5 -28 11 -12 12 -40 29 -83 51 -14 7 -27 15 -30 18 -3 3 -21 17
-40 30 -19 14 -39 28 -45 32 -5 4 -32 26 -59 50 -238 208 -373 431 -466 768
-21 76 -35 211 -34 325 1 109 4 142 20 255 16 108 77 286 135 398 43 81 79
144 89 152 3 3 17 23 32 45 137 200 429 422 658 500 3 1 12 4 20 7 27 11 115
37 140 42 14 3 36 8 50 10 93 20 139 26 226 30 l69 3 0 719 0 719 -113 0 c-62
0 -114 0 -115 -1z"/>
<path d="M2808 11575 c-2 -2 -28 -5 -58 -8 -106 -12 -253 -69 -370 -145 -79
-52 -206 -181 -253 -258 -133 -218 -174 -455 -119 -699 70 -311 332 -579 645
-661 34 -9 76 -18 92 -21 55 -8 216 -10 258 -2 23 4 56 10 72 13 54 9 80 15
100 24 80 36 171 78 175 82 3 3 28 20 55 39 74 50 187 168 237 247 55 85 109
213 124 294 2 8 6 31 10 50 10 52 12 251 2 285 -4 17 -11 44 -13 60 -13 71
-89 254 -124 298 -6 6 -33 39 -60 73 -65 80 -145 150 -228 200 -58 34 -163 83
-198 91 -5 1 -30 7 -55 13 -25 7 -54 14 -65 16 -21 5 -223 13 -227 9z"/>
<path d="M19574 10130 l0 -1200 40 -1 c51 -1 386 -1 404 0 9 1 12 85 12 386 0
212 3 385 8 384 4 0 38 -43 76 -94 38 -52 77 -105 87 -117 10 -13 109 -144
221 -292 l204 -269 277 -1 c152 -1 277 1 277 4 0 3 -19 25 -41 50 -23 25 -49
54 -58 66 -9 11 -39 47 -68 80 -73 83 -87 100 -123 144 -18 22 -42 50 -53 63
-43 47 -83 93 -136 157 -30 36 -61 72 -70 80 -9 8 -34 38 -56 65 -21 28 -46
57 -55 65 -8 8 -37 41 -64 73 -43 52 -47 60 -34 75 8 9 26 31 40 47 14 17 57
66 94 110 38 45 87 103 109 129 73 88 100 120 115 136 8 8 39 46 69 83 30 37
58 67 63 67 4 0 8 6 8 14 0 8 4 16 8 18 5 2 56 59 113 128 57 69 107 127 112
128 30 14 -27 18 -261 17 -293 0 -274 4 -320 -62 -13 -18 -31 -42 -42 -55 -41
-48 -91 -111 -191 -240 -57 -73 -106 -135 -109 -138 -3 -3 -21 -25 -40 -50
-19 -25 -42 -53 -52 -63 -9 -11 -33 -43 -55 -72 -21 -30 -41 -54 -45 -55 -5 0
-8 302 -8 670 l0 670 -228 0 -228 0 0 -1200z"/>
<path d="M6735 11220 c-11 -4 -23 -6 -27 -3 -7 3 -12 -25 -10 -48 2 -16 5
-893 3 -929 0 -8 0 -62 0 -120 1 -58 1 -112 1 -120 -1 -8 -1 -116 -1 -240 1
-124 0 -232 0 -240 -1 -8 -1 -26 0 -40 0 -14 0 -32 0 -40 0 -8 0 -62 0 -120 1
-58 1 -112 0 -120 -3 -42 0 -265 4 -268 3 -3 333 -6 421 -3 l31 1 -1 486 c-1
267 2 491 6 497 5 8 141 12 491 12 l485 0 -2 -498 c-1 -435 1 -497 14 -498 21
-1 422 -1 438 0 9 1 13 13 12 34 -1 17 -1 37 0 42 1 6 1 15 0 20 -2 11 -2 257
1 271 1 5 0 14 -1 19 -4 23 -2 94 4 103 3 6 3 13 -2 16 -4 3 -5 30 -2 61 3 30
4 58 1 60 -4 5 -5 80 -1 100 1 6 2 12 1 15 -5 16 -2 220 3 228 3 6 3 13 -2 16
-4 3 -5 30 -2 61 3 30 4 57 2 60 -7 7 -5 172 2 183 3 6 3 13 -2 16 -4 3 -5 30
-2 61 3 30 4 57 2 60 -4 3 -5 521 -1 541 1 5 0 14 -1 19 -4 23 -2 94 4 103 3
6 3 13 -2 16 -4 3 -5 30 -2 61 3 31 2 58 -2 61 -5 3 -6 10 -2 15 8 14 -5 61
-16 54 -8 -5 -192 -9 -215 -4 -5 1 -13 1 -17 1 -3 -1 -52 -2 -107 -3 l-101 -1
-1 -27 c0 -14 -1 -223 -1 -463 l-1 -437 -488 -1 -489 0 -1 23 c0 12 -1 220 -2
462 l-2 440 -192 2 c-105 0 -195 3 -200 6 -4 2 -17 1 -28 -3z"/>
<path d="M13174 11218 c-7 -11 -13 -2245 -6 -2278 3 -13 71 -15 546 -13 545 1
643 6 751 40 69 21 185 74 185 84 0 5 6 9 14 9 7 0 42 31 78 68 112 119 153
225 162 417 4 102 -44 259 -105 338 -62 80 -168 169 -219 182 -3 1 -22 9 -42
18 -21 10 -47 17 -60 17 -26 0 -13 18 19 24 49 10 151 72 203 125 110 110 151
226 146 405 -2 61 -6 125 -10 141 -12 53 -72 169 -111 213 -52 59 -168 136
-240 158 -153 47 -147 46 -499 50 -187 3 -341 5 -342 7 -1 1 -64 0 -139 -3
-75 -3 -142 -2 -148 2 -6 4 -15 4 -20 1 -12 -7 -133 -7 -146 1 -5 4 -13 1 -17
-6z m966 -374 c51 -11 52 -11 91 -28 55 -23 114 -85 134 -140 26 -69 25 -187
-2 -247 -64 -143 -139 -169 -494 -172 -131 -1 -240 0 -240 3 -1 3 -2 136 -3
295 l-1 290 30 5 c45 7 443 3 485 -6z m51 -927 c152 -40 241 -146 242 -291 1
-101 -23 -175 -75 -226 -42 -41 -97 -73 -124 -73 -8 0 -14 -3 -14 -6 0 -12
-68 -15 -330 -15 l-265 -1 0 313 0 313 270 -4 c148 -2 282 -6 296 -10z"/>
<path d="M9660 10733 c-41 -8 -79 -15 -85 -17 -5 -1 -30 -8 -55 -15 -25 -7
-50 -17 -56 -22 -7 -6 -22 -12 -34 -14 -12 -2 -44 -18 -71 -35 -27 -16 -52
-30 -55 -30 -3 0 -11 -6 -18 -12 -7 -7 -25 -22 -40 -33 -33 -23 -112 -104
-134 -137 -9 -13 -19 -25 -22 -28 -13 -10 -80 -131 -86 -155 -3 -14 -10 -25
-15 -25 -5 0 -8 -3 -7 -7 1 -5 -5 -28 -12 -53 -7 -25 -14 -49 -15 -55 -2 -5
-8 -36 -15 -69 -14 -69 -20 -282 -9 -340 4 -23 10 -59 14 -81 9 -52 9 -53 24
-100 24 -71 70 -164 113 -228 42 -61 171 -197 188 -197 5 0 15 -6 22 -13 59
-57 257 -133 399 -153 54 -8 250 -8 304 -1 197 27 379 113 508 240 180 177
267 404 261 683 -2 71 -5 140 -7 154 -8 60 -30 146 -39 158 -6 6 -8 12 -5 12
12 0 -48 127 -95 200 -51 81 -155 188 -228 235 -25 16 -48 30 -52 30 -3 0 -10
4 -15 8 -20 21 -185 81 -248 92 -11 2 -33 6 -50 10 -61 13 -289 12 -365 -2z
m313 -398 c129 -34 254 -155 296 -286 23 -71 32 -132 33 -209 1 -196 -49 -333
-157 -428 -46 -41 -142 -91 -184 -98 -72 -12 -186 -11 -234 2 -157 41 -275
162 -317 324 -40 153 -19 374 46 489 24 42 125 151 140 151 3 0 19 9 35 21 16
11 29 18 29 14 0 -3 10 0 23 7 56 31 198 37 290 13z"/>
<path d="M11809 10746 c-2 -2 -27 -6 -56 -10 -28 -3 -63 -10 -77 -16 -14 -5
-26 -8 -26 -6 0 7 -132 -41 -180 -65 -99 -48 -198 -129 -283 -229 -51 -60
-137 -231 -151 -301 -3 -13 -8 -35 -11 -49 -13 -53 -19 -116 -27 -265 -1 -18
12 -149 17 -175 13 -64 23 -104 25 -107 2 -2 3 -6 4 -10 1 -5 5 -14 9 -20 5
-7 6 -13 3 -13 -3 0 8 -29 25 -65 86 -191 228 -335 414 -421 166 -77 382 -107
570 -79 28 4 61 8 75 10 53 6 169 49 249 91 179 94 310 240 383 424 42 104 54
158 64 270 9 118 10 154 2 220 -12 98 -16 121 -28 165 -6 22 -13 50 -16 63
-17 82 -114 240 -202 330 -95 99 -283 205 -396 226 -14 3 -34 7 -44 10 -45 14
-87 18 -208 21 -73 2 -134 2 -135 1z m317 -443 c46 -22 128 -92 170 -145 21
-27 63 -145 73 -204 13 -81 6 -247 -13 -317 -32 -116 -91 -200 -183 -259 -37
-24 -70 -44 -75 -44 -4 -1 -10 -3 -13 -4 -3 -1 -8 -3 -12 -5 -5 -1 -16 -5 -26
-10 -24 -10 -169 -12 -225 -3 -24 4 -62 16 -85 26 -45 20 -137 87 -150 108 -4
7 -14 19 -22 27 -32 33 -72 127 -92 217 -3 14 -5 75 -6 135 0 182 41 300 138
397 136 135 344 168 521 81z"/>
<path d="M15750 10729 c-191 -42 -364 -162 -468 -324 -51 -80 -109 -232 -128
-335 -26 -145 -25 -366 2 -495 4 -16 7 -37 8 -45 3 -16 23 -83 35 -115 49
-123 110 -218 195 -298 88 -84 92 -87 103 -87 6 0 22 -9 36 -20 25 -20 167
-83 167 -75 0 3 11 0 24 -5 33 -12 118 -23 191 -23 131 -1 218 16 336 66 69
30 209 148 209 177 0 5 4 10 9 10 5 0 23 28 41 63 18 34 34 64 36 66 2 3 4
-69 3 -160 0 -90 0 -173 0 -184 1 -19 7 -20 218 -18 120 1 223 2 228 2 10 1
15 1790 5 1792 -3 1 -105 3 -227 4 -152 1 -223 -2 -224 -9 0 -6 0 -86 0 -178
1 -93 -1 -168 -3 -168 -2 0 -15 24 -30 53 -54 112 -189 230 -314 277 -86 33
-137 41 -257 44 -80 3 -133 -2 -195 -15z m442 -393 c73 -17 165 -70 216 -126
46 -49 93 -125 107 -170 22 -71 28 -112 30 -192 6 -177 -41 -307 -148 -412
-58 -57 -137 -102 -194 -112 -16 -3 -35 -7 -44 -10 -22 -6 -148 -6 -179 0 -14
3 -38 8 -55 12 -51 11 -141 64 -189 111 -91 92 -132 210 -138 398 -8 248 145
462 359 501 15 3 29 7 32 9 5 6 171 -1 203 -9z"/>
<path d="M18369 10745 c-3 -2 -18 -6 -34 -9 -17 -2 -30 -5 -30 -6 0 -1 -11 -3
-25 -6 -14 -2 -66 -24 -116 -48 -109 -54 -195 -134 -249 -230 -20 -37 -37 -66
-38 -66 -1 0 -2 78 -2 173 l0 172 -228 1 -227 0 -1 -25 c-1 -34 -1 -1730 0
-1756 1 -19 7 -20 213 -18 117 1 220 2 228 2 13 1 15 64 16 509 0 279 4 530 8
557 15 109 57 197 125 264 76 75 171 111 296 111 170 0 298 -75 362 -212 46
-97 47 -115 48 -685 0 -536 0 -543 20 -544 25 -1 405 -1 423 0 10 1 12 115 9
604 -4 564 -6 632 -23 697 -4 14 -8 31 -10 38 -7 34 -50 142 -56 142 -5 0 -8
5 -8 11 0 32 -110 163 -173 206 -23 15 -44 30 -47 33 -22 22 -133 64 -201 77
-40 7 -274 14 -280 8z"/>
</g>
</svg>
